<svg version="1.0" xmlns="http://www.w3.org/2000/svg" width="512" height="512" viewBox="0 0 512 512">
  <g transform="translate(0,512) scale(0.1,-0.1)" fill="#000000" stroke="none">
    <path d="M0 2560 l0 -2560 2560 0 2560 0 0 2560 0 2560 -2560 0 -2560 0 0 -2560z m4480 0 l0 -1920 -1920 0 -1920 0 0 1920 0 1920 1920 0 1920 0 0 -1920z"/>
    <path d="M1280 3200 l0 -320 1280 0 1280 0 0 320 0 320 -1280 0 -1280 0 0 -320z"/>
    <path d="M1280 2560 l0 -320 1280 0 1280 0 0 320 0 320 -1280 0 -1280 0 0 -320z"/>
    <path d="M1280 1920 l0 -320 960 0 960 0 0 320 0 320 -960 0 -960 0 0 -320z"/>
    <circle cx="960" cy="3200" r="80"/>
    <circle cx="960" cy="2560" r="80"/>
    <circle cx="960" cy="1920" r="80"/>
  </g>
</svg>